<?xml version="1.0" encoding="UTF-8"?>
<svg id="Layer_1" data-name="Layer 1" xmlns="http://www.w3.org/2000/svg" viewBox="0 0 1417.32 1417.32">
  <defs>
    <style>
      .cls-1 {
        fill: none;
        stroke: #2fb77a;
        stroke-miterlimit: 10;
        stroke-width: 37px;
      }

      .cls-2 {
        fill: #2fb77a;
      }
    </style>
  </defs>
  <g>
    <path class="cls-1" d="m215.49,969.56c103.58,43.09,246.26,80.39,383.9,27.92,66.34-25.29,87.7-54.74,146.58-76.78,86.63-32.43,223.09-37.06,439.74,90.74"/>
    <path class="cls-1" d="m215.49,1083.88c103.58,43.09,246.26,80.39,383.9,27.92,66.34-25.29,87.7-54.74,146.58-76.78,86.63-32.43,223.09-37.06,439.74,90.74"/>
    <path class="cls-1" d="m215.49,1195.71c103.58,43.09,246.26,80.39,383.9,27.92,66.34-25.29,87.7-54.74,146.58-76.78,86.63-32.43,223.09-37.06,439.74,90.74"/>
  </g>
  <path class="cls-2" d="m175.73,851.06h211.6S229.14,285.59,721.14,292.86c122.93,1.82,202.7,37.57,253.21,90.19,82.4,85.84,79.95,204.21,79.23,250.13-1.54,98.51-39.71,217.87-39.72,217.89h0l214.11-8.02c18.51-110.2,10.3-199.92.97-256.58-8.66-52.55-32.83-199.28-130.19-310.84-75.29-86.27-169.53-128.68-169.53-128.68h0c-31.16-15.07-108.01-48.5-210.38-53.11-150.16-6.76-273.46,52.16-341.11,100.09-176.89,125.31-205.92,324.27-215.84,386.73-18.4,115.91-1.22,212.54,13.82,270.42Z"/>
</svg>