<?xml version="1.0" encoding="UTF-8"?>
<svg id="Layer_1" data-name="Layer 1" xmlns="http://www.w3.org/2000/svg" viewBox="0 0 1417.32 1417.32">
  <defs>
    <style>
      .cls-1 {
        fill: #fff;
      }

      .cls-2 {
        fill: none;
        stroke: #2fb77a;
        stroke-miterlimit: 10;
        stroke-width: 5px;
      }

      .cls-3 {
        fill: #2fb77a;
      }

      .cls-4 {
        font-family: Poppins-Regular, Poppins;
        font-size: 68px;
      }

      .cls-4, .cls-5 {
        fill: #231f20;
      }
    </style>
  </defs>
  <g>
    <path class="cls-3" d="m307.02,636.2c0,2.3-.65,4.4-1.95,6.3l-55.65,78.6h56.33v16.12h-82.5v-7.95c0-1,.17-1.96.52-2.89.35-.92.8-1.79,1.35-2.59l55.8-78.98h-54.15v-16.05h80.25v7.43Z"/>
    <path class="cls-3" d="m424.24,683c0,7.95-1.31,15.31-3.94,22.09-2.62,6.78-6.34,12.64-11.14,17.59-4.8,4.95-10.57,8.81-17.32,11.59s-14.25,4.16-22.5,4.16-15.68-1.39-22.43-4.16-12.54-6.64-17.36-11.59c-4.83-4.95-8.56-10.81-11.21-17.59-2.65-6.77-3.98-14.14-3.98-22.09s1.32-15.31,3.98-22.09c2.65-6.77,6.39-12.64,11.21-17.59,4.82-4.95,10.61-8.81,17.36-11.59,6.75-2.78,14.22-4.16,22.43-4.16,5.5,0,10.67.64,15.52,1.91,4.85,1.27,9.3,3.07,13.35,5.4,4.05,2.32,7.69,5.15,10.91,8.48,3.22,3.33,5.96,7.04,8.21,11.14,2.25,4.1,3.96,8.55,5.14,13.35,1.17,4.8,1.76,9.85,1.76,15.15Zm-20.62,0c0-5.95-.8-11.29-2.4-16.01-1.6-4.73-3.88-8.74-6.83-12.04-2.95-3.3-6.54-5.82-10.76-7.58-4.23-1.75-8.99-2.62-14.29-2.62s-10.06.88-14.29,2.62c-4.23,1.75-7.83,4.27-10.8,7.58-2.98,3.3-5.26,7.31-6.86,12.04-1.6,4.72-2.4,10.06-2.4,16.01s.8,11.29,2.4,16.01c1.6,4.73,3.89,8.73,6.86,12,2.97,3.28,6.57,5.79,10.8,7.54,4.22,1.75,8.99,2.62,14.29,2.62s10.06-.87,14.29-2.62c4.22-1.75,7.81-4.26,10.76-7.54,2.95-3.27,5.22-7.27,6.83-12,1.6-4.73,2.4-10.06,2.4-16.01Z"/>
    <path class="cls-5" d="m533.44,628.78v108.45h-10.35c-1.6,0-2.94-.26-4.01-.79-1.08-.52-2.11-1.41-3.11-2.66l-56.62-72.3c.3,3.3.45,6.35.45,9.15v66.6h-17.77v-108.45h10.57c.85,0,1.59.04,2.21.11.62.07,1.17.23,1.65.45.47.23.94.55,1.39.98.45.43.95.99,1.5,1.69l56.85,72.6c-.15-1.75-.28-3.47-.38-5.17-.1-1.7-.15-3.27-.15-4.73v-65.93h17.77Z"/>
    <path class="cls-5" d="m577.84,737.23h-20.25v-108.45h20.25v108.45Z"/>
    <path class="cls-5" d="m622.32,644.83v30.07h37.95v15.53h-37.95v30.67h48.15v16.12h-68.4v-108.45h68.4v16.05h-48.15Zm8.62-32.62c0,1.35-.28,2.62-.83,3.82-.55,1.2-1.29,2.25-2.21,3.15-.93.9-2.01,1.6-3.26,2.1-1.25.5-2.58.75-3.98.75-1.3,0-2.54-.25-3.71-.75-1.18-.5-2.21-1.2-3.11-2.1-.9-.9-1.63-1.95-2.18-3.15-.55-1.2-.82-2.47-.82-3.82s.27-2.64.82-3.86c.55-1.22,1.28-2.3,2.18-3.22.9-.92,1.94-1.66,3.11-2.21,1.17-.55,2.41-.82,3.71-.82,1.4,0,2.72.28,3.98.82,1.25.55,2.34,1.29,3.26,2.21.92.93,1.66,2,2.21,3.22.55,1.23.83,2.51.83,3.86Zm33,0c0,1.35-.26,2.62-.79,3.82-.52,1.2-1.25,2.25-2.18,3.15-.93.9-2,1.6-3.22,2.1-1.23.5-2.51.75-3.86.75s-2.71-.25-3.94-.75c-1.23-.5-2.29-1.2-3.19-2.1-.9-.9-1.61-1.95-2.14-3.15-.53-1.2-.79-2.47-.79-3.82s.26-2.64.79-3.86c.52-1.22,1.24-2.3,2.14-3.22.9-.92,1.96-1.66,3.19-2.21,1.22-.55,2.54-.82,3.94-.82s2.64.28,3.86.82c1.22.55,2.3,1.29,3.22,2.21.92.93,1.65,2,2.18,3.22.52,1.23.79,2.51.79,3.86Z"/>
    <path class="cls-3" d="m779.74,628.78v108.45h-10.35c-1.6,0-2.94-.26-4.01-.79-1.08-.52-2.11-1.41-3.11-2.66l-56.62-72.3c.3,3.3.45,6.35.45,9.15v66.6h-17.77v-108.45h10.57c.85,0,1.59.04,2.21.11.62.07,1.17.23,1.65.45.47.23.94.55,1.39.98.45.43.95.99,1.5,1.69l56.85,72.6c-.15-1.75-.28-3.47-.38-5.17-.1-1.7-.15-3.27-.15-4.73v-65.93h17.77Z"/>
    <path class="cls-5" d="m878.59,636.2c0,2.3-.65,4.4-1.95,6.3l-55.65,78.6h56.33v16.12h-82.5v-7.95c0-1,.17-1.96.53-2.89.35-.92.8-1.79,1.35-2.59l55.8-78.98h-54.15v-16.05h80.25v7.43Z"/>
    <path class="cls-5" d="m995.82,683c0,7.95-1.31,15.31-3.94,22.09-2.62,6.78-6.34,12.64-11.14,17.59-4.8,4.95-10.58,8.81-17.33,11.59s-14.25,4.16-22.5,4.16-15.67-1.39-22.42-4.16-12.54-6.64-17.36-11.59c-4.83-4.95-8.56-10.81-11.21-17.59-2.65-6.77-3.97-14.14-3.97-22.09s1.32-15.31,3.97-22.09c2.65-6.77,6.39-12.64,11.21-17.59,4.82-4.95,10.61-8.81,17.36-11.59,6.75-2.78,14.22-4.16,22.42-4.16,5.5,0,10.67.64,15.53,1.91,4.85,1.27,9.3,3.07,13.35,5.4,4.05,2.32,7.69,5.15,10.91,8.48,3.22,3.33,5.96,7.04,8.21,11.14,2.25,4.1,3.96,8.55,5.14,13.35s1.76,9.85,1.76,15.15Zm-20.62,0c0-5.95-.8-11.29-2.4-16.01-1.6-4.73-3.88-8.74-6.82-12.04-2.95-3.3-6.54-5.82-10.76-7.58-4.23-1.75-8.99-2.62-14.29-2.62s-10.06.88-14.29,2.62c-4.23,1.75-7.83,4.27-10.8,7.58-2.98,3.3-5.26,7.31-6.86,12.04-1.6,4.72-2.4,10.06-2.4,16.01s.8,11.29,2.4,16.01c1.6,4.73,3.89,8.73,6.86,12,2.97,3.28,6.57,5.79,10.8,7.54,4.22,1.75,8.99,2.62,14.29,2.62s10.06-.87,14.29-2.62c4.22-1.75,7.81-4.26,10.76-7.54,2.95-3.27,5.22-7.27,6.82-12,1.6-4.73,2.4-10.06,2.4-16.01Z"/>
    <path class="cls-5" d="m1098.27,737.23h-18.22c-3.45,0-5.95-1.35-7.5-4.05l-22.8-34.73c-.85-1.3-1.79-2.22-2.81-2.77-1.03-.55-2.54-.83-4.54-.83h-8.62v42.38h-20.17v-108.45h33.08c7.35,0,13.66.76,18.94,2.29,5.27,1.53,9.6,3.66,12.97,6.41,3.38,2.75,5.86,6.04,7.46,9.86,1.6,3.83,2.4,8.04,2.4,12.64,0,3.65-.54,7.1-1.61,10.35-1.08,3.25-2.62,6.2-4.65,8.85-2.02,2.65-4.53,4.98-7.5,6.97-2.97,2-6.36,3.58-10.16,4.73,1.3.75,2.5,1.64,3.6,2.66,1.1,1.03,2.1,2.24,3,3.64l27.15,40.05Zm-51.9-56.85c3.8,0,7.11-.47,9.94-1.42,2.82-.95,5.15-2.26,6.98-3.94,1.82-1.67,3.19-3.66,4.09-5.96.9-2.3,1.35-4.82,1.35-7.58,0-5.5-1.81-9.72-5.44-12.67-3.63-2.95-9.16-4.43-16.61-4.43h-12.9v36h12.6Z"/>
    <path class="cls-5" d="m1197.94,682.85v43.88c-5.5,4.05-11.36,7.01-17.59,8.89-6.23,1.88-12.89,2.81-19.99,2.81-8.85,0-16.86-1.38-24.04-4.12-7.17-2.75-13.3-6.57-18.38-11.48-5.08-4.9-8.99-10.75-11.74-17.55-2.75-6.8-4.12-14.22-4.12-22.27s1.32-15.62,3.97-22.42c2.65-6.8,6.41-12.65,11.29-17.55,4.88-4.9,10.79-8.7,17.74-11.4,6.95-2.7,14.75-4.05,23.4-4.05,4.4,0,8.51.35,12.34,1.05,3.83.7,7.38,1.66,10.65,2.89,3.27,1.23,6.26,2.71,8.96,4.46,2.7,1.75,5.18,3.67,7.43,5.77l-5.78,9.15c-.9,1.45-2.08,2.34-3.53,2.66-1.45.33-3.03-.04-4.72-1.09-1.65-.95-3.3-1.9-4.95-2.85-1.65-.95-3.49-1.77-5.51-2.48-2.02-.7-4.3-1.27-6.82-1.72-2.53-.45-5.44-.68-8.74-.68-5.35,0-10.19.9-14.51,2.7-4.33,1.8-8.01,4.38-11.06,7.73-3.05,3.35-5.4,7.38-7.05,12.07-1.65,4.7-2.47,9.95-2.47,15.75,0,6.2.89,11.74,2.66,16.61,1.77,4.88,4.28,9,7.5,12.38,3.23,3.38,7.11,5.95,11.66,7.72,4.55,1.78,9.62,2.66,15.22,2.66,4,0,7.58-.42,10.73-1.27,3.15-.85,6.22-2,9.22-3.45v-19.65h-13.65c-1.3,0-2.31-.36-3.04-1.09-.73-.72-1.09-1.61-1.09-2.66v-11.4h36Z"/>
    <rect class="cls-1" x="312.06" y="700.62" width="112.18" height="73.66"/>
    <path class="cls-2" d="m320.79,712.48c10.36,4.31,24.63,8.04,38.39,2.79,6.64-2.53,8.77-5.47,14.66-7.68,8.66-3.24,22.31-3.71,43.98,9.07"/>
    <path class="cls-2" d="m320.79,723.91c10.36,4.31,24.63,8.04,38.39,2.79,6.64-2.53,8.77-5.47,14.66-7.68,8.66-3.24,22.31-3.71,43.98,9.07"/>
    <path class="cls-2" d="m320.79,735.09c10.36,4.31,24.63,8.04,38.39,2.79,6.64-2.53,8.77-5.47,14.66-7.68,8.66-3.24,22.31-3.71,43.98,9.07"/>
  </g>
  <text class="cls-4" transform="translate(219.38 820.89)"><tspan x="0" y="0">Lokaal Dienstencentrum vzw</tspan></text>
</svg>